<?xml version="1.0" encoding="iso-8859-1"?>
<!-- Uploaded to: SVG Repo, www.svgrepo.com, Generator: SVG Repo Mixer Tools -->
<svg height="800px" width="800px" version="1.1" id="Layer_1" xmlns="http://www.w3.org/2000/svg" xmlns:xlink="http://www.w3.org/1999/xlink" 
	 viewBox="0 0 508.609 508.609" xml:space="preserve">
<path style="fill:#F1F3F7;" d="M417.566,333.648l-50.522-11.868l-18.649-4.408c-23.396-5.425-39.672-26.109-39.672-50.183v-60.016
	H200.22v60.016c0,23.735-16.275,44.758-39.672,50.183L141.9,321.78l-50.522,11.868c-26.787,6.442-45.097,28.143-45.097,53.574
	v121.388h140.715H328.39h133.934V387.221C462.663,362.13,444.014,340.09,417.566,333.648z"/>
<path style="fill:#608287;" d="M254.472,477.076L254.472,477.076c-61.033,0-110.538-49.505-110.538-110.538v-256
	C143.934,49.505,193.439,0,254.472,0l0,0C315.505,0,365.01,49.505,365.01,110.538v255.661
	C365.01,427.232,315.505,477.076,254.472,477.076z"/>
<path style="fill:#FACCB4;" d="M254.472,269.902c39.332,0,71.205-31.873,71.205-71.205v-65.78
	c-20.344-11.189-44.758-17.632-71.205-17.632s-50.861,6.442-71.205,17.632v65.78C183.267,238.029,215.139,269.902,254.472,269.902z"
	/>
</svg>